HIERARCHY
ROOT Hips
{
	OFFSET -1.184550 -92.605789 -1.211986
	CHANNELS 6 Xposition Yposition Zposition Zrotation Xrotation Yrotation
	JOINT Spine
	{
		OFFSET 0.107134 -20.828293 3.983565
		CHANNELS 6 Xposition Yposition Zposition Zrotation Xrotation Yrotation
		JOINT Spine1
		{
			OFFSET 0.052365 -10.119110 -0.528501
			CHANNELS 6 Xposition Yposition Zposition Zrotation Xrotation Yrotation
			JOINT Spine2
			{
				OFFSET 0.041914 -9.193100 -0.426316
				CHANNELS 6 Xposition Yposition Zposition Zrotation Xrotation Yrotation
				JOINT Neck
				{
					OFFSET 0.274293 -20.339844 -2.659677
					CHANNELS 6 Xposition Yposition Zposition Zrotation Xrotation Yrotation
					JOINT Head
					{
						OFFSET 0.058048 -9.746796 -0.582624
						CHANNELS 6 Xposition Yposition Zposition Zrotation Xrotation Yrotation
						End Site
						{
							OFFSET 0.000589 -0.099350 0.011348
						}
					}
				}
				JOINT LeftShoulder
				{
					OFFSET 4.718655 -10.315430 -4.351628
					CHANNELS 6 Xposition Yposition Zposition Zrotation Xrotation Yrotation
					JOINT LeftArm
					{
						OFFSET 9.498989 1.098145 5.100963
						CHANNELS 6 Xposition Yposition Zposition Zrotation Xrotation Yrotation
						JOINT LeftForeArm
						{
							OFFSET 23.845404 13.075882 5.963764
							CHANNELS 6 Xposition Yposition Zposition Zrotation Xrotation Yrotation
							JOINT LeftHand
							{
								OFFSET 23.388580 15.412743 -4.235813
								CHANNELS 6 Xposition Yposition Zposition Zrotation Xrotation Yrotation
								End Site
								{
									OFFSET 0.049503 -0.082558 -0.027075
								}
							}
						}
					}
				}
				JOINT RightShoulder
				{
					OFFSET -4.420938 -10.435394 -4.378174
					CHANNELS 6 Xposition Yposition Zposition Zrotation Xrotation Yrotation
					JOINT RightArm
					{
						OFFSET -9.496534 1.102051 5.105543
						CHANNELS 6 Xposition Yposition Zposition Zrotation Xrotation Yrotation
						JOINT RightForeArm
						{
							OFFSET -23.845407 13.075897 5.963771
							CHANNELS 6 Xposition Yposition Zposition Zrotation Xrotation Yrotation
							JOINT RightHand
							{
								OFFSET -23.388588 15.412758 -4.235809
								CHANNELS 6 Xposition Yposition Zposition Zrotation Xrotation Yrotation
								End Site
								{
									OFFSET -0.049503 -0.082558 -0.027075
								}
							}
						}
					}
				}
			}
		}
	}
	JOINT LeftUpLeg
	{
		OFFSET 8.239366 -6.172241 3.086776
		CHANNELS 6 Xposition Yposition Zposition Zrotation Xrotation Yrotation
		JOINT LeftLeg
		{
			OFFSET -0.000001 44.241604 -3.391724
			CHANNELS 6 Xposition Yposition Zposition Zrotation Xrotation Yrotation
			JOINT LeftFoot
			{
				OFFSET -0.000006 44.310764 4.391876
				CHANNELS 6 Xposition Yposition Zposition Zrotation Xrotation Yrotation
				JOINT LeftToeBase
				{
					OFFSET -0.000001 9.064466 -10.427944
					CHANNELS 6 Xposition Yposition Zposition Zrotation Xrotation Yrotation
					End Site
					{
						OFFSET 0.000000 -0.099948 -0.003176
					}
				}
			}
		}
	}
	JOINT RightUpLeg
	{
		OFFSET -8.176001 -6.257103 3.084341
		CHANNELS 6 Xposition Yposition Zposition Zrotation Xrotation Yrotation
		JOINT RightLeg
		{
			OFFSET -0.000006 44.241608 -3.391724
			CHANNELS 6 Xposition Yposition Zposition Zrotation Xrotation Yrotation
			JOINT RightFoot
			{
				OFFSET -0.000005 44.310661 4.391856
				CHANNELS 6 Xposition Yposition Zposition Zrotation Xrotation Yrotation
				JOINT RightToeBase
				{
					OFFSET -0.000001 9.064081 -10.428268
					CHANNELS 6 Xposition Yposition Zposition Zrotation Xrotation Yrotation
					End Site
					{
						OFFSET 0.000000 -0.099948 -0.003173
					}
				}
			}
		}
	}
}
MOTION
Frames: 6
Frame Time: 0.041667
-2.732866 -20.620621 -59.474007 0.000000 -0.000000 -0.000000 0.107134 -20.828300 3.983562 0.000000 0.000002 0.000000 0.052365 -10.119110 -0.528504 -0.000000 -0.000001 0.000000 0.041914 -9.193100 -0.426319 0.000000 -0.000002 0.000000 0.274293 -20.339813 -2.659667 0.000000 0.000005 0.000000 0.058048 -9.746765 -0.582623 -0.000000 0.000001 -0.000000 4.718655 -10.315431 -4.351618 -0.000023 0.000015 -0.000006 9.498983 1.098149 5.100963 0.000016 -0.000014 -0.000002 23.845390 13.075884 5.963748 0.000006 0.000013 -0.000005 23.388569 15.412746 -4.235813 0.000002 -0.000004 0.000001 -4.420938 -10.435396 -4.378164 0.000034 0.000016 -0.000000 -9.496535 1.102059 5.105547 -0.000032 -0.000007 -0.000003 -23.845411 13.075897 5.963764 -0.000003 -0.000005 0.000004 -23.388592 15.412751 -4.235817 -0.000008 0.000001 0.000006 8.239367 -6.172242 3.086776 -0.000002 0.000003 -0.000001 -0.000000 44.241604 -3.391728 0.000002 -0.000006 0.000001 -0.000006 44.310760 4.391875 -0.000000 -0.000007 0.000000 -0.000001 9.064466 -10.427938 -0.000000 -0.000001 -0.000000 -8.176002 -6.257118 3.084338 0.000000 0.000002 -0.000000 -0.000007 44.241611 -3.391724 -0.000001 0.000003 0.000000 -0.000005 44.310665 4.391852 -0.000000 0.000000 -0.000000 -0.000001 9.064081 -10.428263 -0.000000 -0.000001 -0.000000 
-2.479450 -20.421257 -58.685150 -3.119766 3.066964 150.498396 0.107129 -20.828293 3.983564 0.000003 0.000001 -0.000002 0.052362 -10.119102 -0.528507 -0.000006 -0.000004 0.000001 0.041912 -9.193100 -0.426327 -0.000000 -0.000001 0.000002 0.274292 -20.339828 -2.659686 0.000004 0.000004 0.000007 0.058037 -9.746759 -0.582626 13.828029 6.702215 1.651735 4.718651 -10.315446 -4.351638 -25.856627 13.298692 -10.708865 9.498999 1.098147 5.100973 67.003678 -20.368341 16.431017 23.845398 13.075882 5.963762 42.769842 -18.828134 35.998259 23.388561 15.412748 -4.235812 0.000012 0.000005 -0.000003 -4.420926 -10.435410 -4.378175 31.094279 -7.586698 -21.318921 -9.496531 1.102028 5.105536 -83.236858 -29.342038 -33.680940 -23.845404 13.075907 5.963769 -20.882023 -10.133344 -17.572748 -23.388594 15.412764 -4.235816 -0.000007 0.000001 -0.000000 8.239366 -6.172237 3.086783 1.827756 -1.635281 0.475839 0.000001 44.241600 -3.391725 -4.350678 31.359144 2.635888 -0.000008 44.310764 4.391875 -0.000007 -0.000012 -0.000004 -0.000003 9.064479 -10.427942 0.000002 0.000003 0.000001 -8.176012 -6.257107 3.084344 -14.153083 -20.718607 -5.570428 -0.000007 44.241608 -3.391724 -8.179290 21.433875 3.765401 -0.000005 44.310654 4.391856 -0.000003 0.000002 0.000009 -0.000002 9.064081 -10.428270 -0.000006 0.000001 0.000002 
-2.186156 -20.160088 -57.824577 -2.397005 3.433034 146.790505 0.107135 -20.828293 3.983562 0.000002 0.000001 -0.000010 0.052361 -10.119102 -0.528504 -0.000004 -0.000004 -0.000008 0.041917 -9.193101 -0.426325 0.000012 0.000010 -0.000008 0.274292 -20.339828 -2.659670 -0.000008 -0.000004 0.000003 0.058044 -9.746752 -0.582624 11.597820 5.506338 1.380357 4.718641 -10.315443 -4.351623 -25.418167 14.007475 -11.801066 9.498976 1.098140 5.100961 66.496994 -18.899403 13.754038 23.845387 13.075863 5.963757 42.582350 -18.964828 36.085112 23.388565 15.412742 -4.235814 0.000004 -0.000006 0.000003 -4.420924 -10.435418 -4.378163 31.449104 -7.775434 -21.611933 -9.496544 1.102055 5.105550 -81.411135 -27.754062 -29.712518 -23.845415 13.075900 5.963778 -22.838894 -10.932322 -19.005777 -23.388584 15.412763 -4.235814 -0.000000 0.000003 -0.000000 8.239366 -6.172233 3.086775 0.800611 1.546354 0.206257 -0.000004 44.241600 -3.391731 -4.252657 29.049751 2.436753 -0.000000 44.310753 4.391881 0.000000 0.000003 0.000001 -0.000004 9.064465 -10.427944 0.000007 -0.000010 0.000002 -8.176005 -6.257090 3.084344 -13.922902 -21.962019 -5.815900 0.000002 44.241608 -3.391722 -6.758264 17.549328 2.687681 -0.000003 44.310665 4.391850 -0.000000 -0.000009 0.000000 0.000002 9.064082 -10.428261 0.000003 0.000004 0.000005 
-1.813327 -19.874420 -56.735748 -3.040062 3.437696 148.287068 0.107133 -20.828300 3.983560 0.000003 0.000003 -0.000002 0.052368 -10.119102 -0.528502 -0.000005 -0.000004 0.000006 0.041907 -9.193100 -0.426320 0.000009 0.000006 -0.000016 0.274287 -20.339828 -2.659681 -0.000001 -0.000001 0.000004 0.058045 -9.746763 -0.582620 12.053926 4.892568 1.424848 4.718644 -10.315447 -4.351633 -25.543067 12.514965 -10.216544 9.498988 1.098137 5.100971 68.438086 -19.174021 14.336214 23.845402 13.075859 5.963761 44.962818 -19.416587 37.575381 23.388565 15.412749 -4.235810 0.000004 0.000002 0.000004 -4.420928 -10.435408 -4.378170 30.194777 -6.841664 -19.965247 -9.496537 1.102051 5.105545 -82.036111 -26.631782 -28.136297 -23.845402 13.075909 5.963771 -24.781858 -12.057084 -21.052422 -23.388584 15.412773 -4.235822 -0.000002 0.000005 0.000002 8.239361 -6.172235 3.086771 0.340385 -1.161855 0.341146 0.000005 44.241604 -3.391733 -4.527434 29.633175 2.632627 -0.000015 44.310760 4.391876 0.000001 -0.000002 -0.000000 -0.000013 9.064474 -10.427944 0.000001 0.000003 0.000000 -8.176005 -6.257111 3.084340 -14.637539 -21.478884 -5.816736 -0.000006 44.241600 -3.391719 -7.401021 16.599369 2.831609 -0.000004 44.310650 4.391851 0.000003 0.000002 0.000002 0.000007 9.064085 -10.428266 -0.000000 0.000003 0.000003 
-1.358827 -19.511528 -55.388271 -2.495808 2.304954 151.267462 0.107134 -20.828308 3.983566 0.000003 0.000002 0.000008 0.052365 -10.119102 -0.528502 0.000002 -0.000002 0.000005 0.041915 -9.193100 -0.426322 -0.000015 -0.000004 -0.000001 0.274295 -20.339828 -2.659672 0.000002 0.000003 0.000004 0.058048 -9.746768 -0.582627 12.266090 3.957893 1.437426 4.718648 -10.315439 -4.351628 -25.565417 12.730171 -10.338781 9.498971 1.098142 5.100958 69.133652 -19.247876 14.709364 23.845398 13.075870 5.963750 45.006517 -20.148599 38.578360 23.388563 15.412741 -4.235809 0.000005 0.000001 0.000001 -4.420929 -10.435426 -4.378170 30.302834 -7.241536 -20.798297 -9.496521 1.102041 5.105545 -84.149495 -27.315188 -30.254371 -23.845404 13.075896 5.963764 -24.650983 -11.725928 -20.500162 -23.388594 15.412771 -4.235816 0.000004 0.000006 0.000003 8.239367 -6.172240 3.086779 2.229120 -3.366953 0.637154 -0.000004 44.241596 -3.391726 -4.639405 32.383211 2.877425 -0.000003 44.310760 4.391878 -0.000001 -0.000014 0.000002 0.000005 9.064473 -10.427938 0.000001 0.000001 0.000001 -8.176004 -6.257113 3.084344 -14.704962 -21.469426 -5.985291 -0.000011 44.241608 -3.391724 -7.976524 20.262726 3.523915 -0.000006 44.310654 4.391862 -0.000003 0.000003 -0.000002 -0.000002 9.064081 -10.428269 -0.000002 -0.000009 0.000002 
-0.822888 -19.011162 -53.727123 -2.471316 2.286378 151.307050 0.107133 -20.828300 3.983558 0.000001 0.000002 -0.000003 0.052364 -10.119102 -0.528503 -0.000003 -0.000001 0.000002 0.041914 -9.193100 -0.426326 0.000000 0.000006 0.000003 0.274293 -20.339828 -2.659691 -0.000001 -0.000000 -0.000001 0.058038 -9.746780 -0.582620 12.273953 3.833245 1.436780 4.718648 -10.315434 -4.351642 -25.578756 12.725004 -10.332644 9.498976 1.098146 5.100972 69.256834 -19.373283 14.965088 23.845396 13.075877 5.963754 44.942665 -19.891415 38.168183 23.388571 15.412754 -4.235814 -0.000008 -0.000005 -0.000003 -4.420926 -10.435418 -4.378182 30.347073 -7.351877 -20.974850 -9.496540 1.102073 5.105545 -84.492404 -27.515200 -30.755225 -23.845413 13.075895 5.963764 -24.585220 -11.497133 -20.160213 -23.388594 15.412760 -4.235809 -0.000001 0.000001 -0.000000 8.239366 -6.172241 3.086775 2.320841 -3.480078 0.657030 -0.000005 44.241604 -3.391728 -4.538233 32.502002 2.821924 -0.000010 44.310768 4.391875 0.000004 -0.000015 0.000008 -0.000001 9.064463 -10.427944 0.000001 -0.000002 0.000003 -8.176002 -6.257110 3.084340 -14.740463 -21.397740 -5.987498 -0.000011 44.241615 -3.391721 -8.089764 20.303960 3.579810 -0.000007 44.310665 4.391854 -0.000002 -0.000002 0.000002 0.000004 9.064079 -10.428269 -0.000003 0.000002 -0.000002 
